<svg width="23" height="23" viewBox="0 0 23 23" fill="none" xmlns="http://www.w3.org/2000/svg">
<path fill-rule="evenodd" clip-rule="evenodd" d="M6.65099 7.6338C6.65099 7.6338 8.71899 6.37064 11.667 6.37064C14.615 6.37064 16.683 7.6338 16.683 7.6338C15.55 6.62327 13.57 6.04112 13.57 6.04112L13.757 5.85439C15.616 5.88734 17.299 7.17247 17.299 7.17247C19.191 11.1157 19.07 14.5208 19.07 14.5208C17.53 16.5089 15.242 16.3661 15.242 16.3661L14.461 15.3775C15.836 15.081 16.705 13.8618 16.705 13.8618C16.705 13.8618 14.637 15.2677 11.667 15.2677C8.69699 15.2677 6.62899 13.8618 6.62899 13.8618C6.62899 13.8618 7.49799 15.081 8.87299 15.3775L8.09199 16.3661C8.09199 16.3661 5.80399 16.5089 4.26399 14.5208C4.26399 14.5208 4.14299 11.1157 6.03499 7.17247C6.03499 7.17247 7.71799 5.88734 9.57699 5.85439L9.76399 6.04112C9.76399 6.04112 7.78399 6.62327 6.65099 7.6338ZM10.677 11.9286C10.688 11.1597 10.105 10.5336 9.38999 10.5336C8.67499 10.5336 8.11399 11.1597 8.11399 11.9286C8.11399 12.6865 8.68599 13.3235 9.38999 13.3235C10.105 13.3235 10.677 12.6865 10.677 11.9286ZM15.264 11.9286C15.264 11.1597 14.692 10.5336 13.977 10.5336C13.262 10.5336 12.701 11.1597 12.701 11.9286C12.701 12.6865 13.273 13.3235 13.977 13.3235C14.692 13.3235 15.264 12.6865 15.264 11.9286ZM11.667 22.2319C17.7421 22.2319 22.667 17.2551 22.667 11.116C22.667 4.97679 17.7421 0 11.667 0C5.59186 0 0.666992 4.97679 0.666992 11.116C0.666992 17.2551 5.59186 22.2319 11.667 22.2319Z" fill="white"/>
</svg>
