<svg width="16" height="16" viewBox="0 0 16 16" fill="none" xmlns="http://www.w3.org/2000/svg">
<path d="M0 12.129C0 14.2669 1.73309 16 3.87097 16V16C6.00884 16 7.74194 14.2669 7.74194 12.129V8.25806H3.87097C1.73309 8.25806 0 9.99116 0 12.129V12.129Z" fill="#85CC1C"/>
<path d="M0 3.87122C0 6.0091 1.73309 7.74219 3.87097 7.74219H7.74194V3.87122C7.74194 1.73335 6.00884 0.000252247 3.87097 0.000252247V0.000252247C1.73309 0.000252247 0 1.73334 0 3.87122V3.87122Z" fill="#85CC1C"/>
<path d="M8.25781 12.129C8.25781 14.2669 9.9909 16 12.1288 16V16C14.2667 16 15.9997 14.2669 15.9997 12.129V12.129C15.9997 9.99116 14.2667 8.25806 12.1288 8.25806H8.25781V12.129Z" fill="#85CC1C"/>
<path d="M8.25781 7.74219H12.1288C14.2667 7.74219 15.9997 6.0091 15.9997 3.87122V3.87122C15.9997 1.73334 14.2667 0.000252247 12.1288 0.000252247V0.000252247C9.9909 0.000252247 8.25781 1.73334 8.25781 3.87122V7.74219Z" fill="#85CC1C"/>
</svg>
