<svg width="233" height="65" viewBox="0 0 233 65" fill="none" xmlns="http://www.w3.org/2000/svg">
<path d="M0 49.6325C0 57.8129 6.63148 64.4443 14.8118 64.4443C22.9922 64.4443 29.6237 57.8129 29.6237 49.6325V34.8207H14.8118C6.63148 34.8207 0 41.4522 0 49.6325Z" fill="#85CC1C"/>
<path d="M0 18.0344C0 26.2147 6.63148 32.8462 14.8118 32.8462H29.6237V18.0344C29.6237 9.85402 22.9922 3.22254 14.8118 3.22254C6.63148 3.22254 0 9.85402 0 18.0344Z" fill="#85CC1C"/>
<path d="M31.5996 49.6325C31.5996 57.8129 38.2311 64.4443 46.4114 64.4443C54.5918 64.4443 61.2233 57.8129 61.2233 49.6325C61.2233 41.4522 54.5918 34.8207 46.4114 34.8207H31.5996V49.6325Z" fill="#85CC1C"/>
<path d="M31.5996 32.8462H46.4114C54.5918 32.8462 61.2233 26.2147 61.2233 18.0344C61.2233 9.85402 54.5918 3.22254 46.4114 3.22254C38.2311 3.22254 31.5996 9.85402 31.5996 18.0344V32.8462Z" fill="#85CC1C"/>
<path d="M88.7069 51.4956C85.4343 51.4956 82.5157 50.8348 79.9512 49.5132C77.3866 48.1916 75.3727 46.2799 73.9095 43.7783C72.4463 41.261 71.7147 38.2087 71.7147 34.6214V33.0402C71.7147 29.7362 72.3834 26.8176 73.7207 24.2845C75.0738 21.7357 76.9933 19.7454 79.4792 18.3136C81.9808 16.8662 84.9466 16.1424 88.3765 16.1424C90.768 16.1424 93.0415 16.465 95.1969 17.11C97.3682 17.7394 99.3821 18.825 101.239 20.3669V29.217H95.2205L94.3945 24.1429C93.8596 23.781 93.2932 23.4664 92.6953 23.1989C92.1132 22.9314 91.4838 22.7269 90.8073 22.5853C90.1465 22.4437 89.4306 22.3729 88.6597 22.3729C86.9132 22.3729 85.3871 22.7898 84.0812 23.6237C82.7753 24.4576 81.7605 25.6691 81.0368 27.2581C80.3288 28.8315 79.9748 30.7431 79.9748 32.993V34.6214C79.9748 36.7297 80.3445 38.5863 81.084 40.1911C81.8235 41.7802 82.854 43.0231 84.1756 43.9199C85.513 44.8167 87.0549 45.2651 88.8013 45.2651C89.7295 45.2651 90.6736 45.1707 91.6333 44.9819C92.593 44.7774 93.5213 44.5099 94.4181 44.1795L95.2441 39.3179H101.286V47.9792C99.917 48.9232 98.1706 49.7492 96.0466 50.4572C93.9225 51.1495 91.476 51.4956 88.7069 51.4956ZM103.846 51V46.1619L106.867 45.4067V19.8005L103.28 19.0452V14.1836H115.15V45.4067L118.148 46.1619V51H103.846ZM132.343 51.4956C129.715 51.4956 127.465 50.9528 125.593 49.8672C123.737 48.7658 122.313 47.2397 121.321 45.2887C120.346 43.322 119.858 41.0486 119.858 38.4683V37.9963C119.858 35.4474 120.346 33.1975 121.321 31.2466C122.313 29.2956 123.737 27.7695 125.593 26.6681C127.45 25.5511 129.684 24.9925 132.296 24.9925C134.923 24.9925 137.157 25.5432 138.998 26.6445C140.855 27.7459 142.271 29.272 143.246 31.223C144.237 33.1739 144.733 35.4317 144.733 37.9963V38.4683C144.733 41.0328 144.237 43.2984 143.246 45.2651C142.271 47.2161 140.855 48.7422 138.998 49.8436C137.157 50.9449 134.939 51.4956 132.343 51.4956ZM132.343 45.1943C133.35 45.1943 134.152 44.9269 134.75 44.3919C135.364 43.8413 135.804 43.0624 136.072 42.0555C136.355 41.0486 136.496 39.8528 136.496 38.4683V37.9963C136.496 36.6589 136.355 35.4946 136.072 34.5034C135.804 33.4965 135.364 32.7177 134.75 32.167C134.136 31.6006 133.318 31.3174 132.296 31.3174C131.289 31.3174 130.478 31.6006 129.865 32.167C129.251 32.7177 128.811 33.4965 128.543 34.5034C128.276 35.4946 128.142 36.6589 128.142 37.9963V38.4683C128.142 39.8685 128.276 41.0722 128.543 42.0791C128.811 43.086 129.251 43.857 129.865 44.3919C130.478 44.9269 131.304 45.1943 132.343 45.1943ZM156.096 51L149.228 30.7982L146.396 30.3262V25.4645H159.825V30.3026L157.536 30.7746L160.25 40.5215L160.769 42.4567H160.91L161.548 40.5215L165.111 30.7982L162.161 30.3026V25.4645H175.566V30.3262L172.64 30.8926L164.899 51H156.096ZM189.927 51.4956C187.425 51.4956 185.238 50.9607 183.366 49.8908C181.509 48.8052 180.062 47.3262 179.023 45.4539C178.001 43.5817 177.489 41.4655 177.489 39.1055V38.2323C177.489 35.6362 177.945 33.3391 178.858 31.341C179.771 29.3428 181.108 27.7852 182.87 26.6681C184.632 25.5353 186.796 24.9768 189.36 24.9925C191.673 24.9925 193.624 25.4409 195.213 26.3377C196.818 27.2188 198.037 28.5247 198.871 30.2554C199.705 31.9703 200.122 34.0865 200.122 36.6038V40.8755H186.08L186.056 41.0407C186.182 41.8431 186.449 42.559 186.858 43.1883C187.283 43.8019 187.865 44.2897 188.605 44.6515C189.344 45.0134 190.257 45.1943 191.343 45.1943C192.412 45.1943 193.459 45.0763 194.481 44.8403C195.52 44.5886 196.613 44.1953 197.762 43.6603L199.65 48.6636C198.501 49.4817 197.101 50.1583 195.449 50.6932C193.797 51.2281 191.956 51.4956 189.927 51.4956ZM186.08 35.7542H192.57V35.1406C192.57 34.2281 192.475 33.465 192.287 32.8514C192.113 32.2378 191.807 31.7737 191.366 31.459C190.926 31.1443 190.32 30.987 189.549 30.987C188.715 30.987 188.046 31.1915 187.543 31.6006C187.055 31.9939 186.693 32.5446 186.457 33.2526C186.237 33.9449 186.08 34.7394 185.985 35.6362L186.08 35.7542ZM204.405 51V46.1619L207.378 45.4067V31.0814L203.838 30.3262V25.4645H215.19L215.379 28.5798L215.426 29.217C215.993 27.7695 216.693 26.7075 217.527 26.0309C218.376 25.3386 219.43 24.9925 220.689 24.9925C221.035 24.9925 221.444 25.024 221.916 25.0869C222.388 25.1341 222.868 25.2285 223.356 25.3701L222.53 32.9694L218.99 32.8042C218.172 32.7727 217.527 32.8671 217.055 33.0874C216.598 33.2919 216.134 33.6381 215.662 34.1258V45.4067L218.636 46.1619V51H204.405ZM222.022 51V44.1559H230.258V51H222.022Z" fill="#1D1D1D"/>
</svg>
