<svg width="146" height="40" viewBox="0 0 146 40" fill="none" xmlns="http://www.w3.org/2000/svg">
<path d="M0 30.8065C0 35.8839 4.11609 40 9.19355 40V40C14.271 40 18.3871 35.8839 18.3871 30.8065V21.6129H9.19355C4.1161 21.6129 0 25.729 0 30.8065V30.8065Z" fill="#85CC1C"/>
<path d="M0 11.1937C0 16.2711 4.11609 20.3872 9.19355 20.3872H18.3871V11.1937C18.3871 6.11621 14.271 2.00011 9.19355 2.00011V2.00011C4.11609 2.00011 0 6.1162 0 11.1937V11.1937Z" fill="#85CC1C"/>
<path d="M19.6133 30.8064C19.6133 35.8839 23.7294 40 28.8068 40V40C33.8843 40 38.0004 35.8839 38.0004 30.8065V30.8065C38.0004 25.729 33.8843 21.6129 28.8068 21.6129H19.6133V30.8064Z" fill="#85CC1C"/>
<path d="M19.6133 20.3872H28.8068C33.8843 20.3872 38.0004 16.2711 38.0004 11.1937V11.1937C38.0004 6.1162 33.8843 2.00011 28.8068 2.00011V2.00011C23.7294 2.00011 19.6133 6.1162 19.6133 11.1937V20.3872Z" fill="#85CC1C"/>
<path d="M57.0596 32.3076C55.0283 32.3076 53.2168 31.8975 51.625 31.0771C50.0332 30.2568 48.7832 29.0703 47.875 27.5176C46.9668 25.9551 46.5127 24.0605 46.5127 21.834V20.8525C46.5127 18.8018 46.9277 16.9902 47.7578 15.418C48.5977 13.8359 49.7891 12.6006 51.332 11.7119C52.8848 10.8135 54.7256 10.3643 56.8545 10.3643C58.3389 10.3643 59.75 10.5645 61.0879 10.9648C62.4355 11.3555 63.6855 12.0293 64.8379 12.9863V18.4795H61.1025L60.5898 15.3301C60.2578 15.1055 59.9062 14.9102 59.5352 14.7441C59.1738 14.5781 58.7832 14.4512 58.3633 14.3633C57.9531 14.2754 57.5088 14.2314 57.0303 14.2314C55.9463 14.2314 54.999 14.4902 54.1885 15.0078C53.3779 15.5254 52.748 16.2773 52.2988 17.2637C51.8594 18.2402 51.6396 19.4268 51.6396 20.8232V21.834C51.6396 23.1426 51.8691 24.2949 52.3281 25.291C52.7871 26.2773 53.4268 27.0488 54.2471 27.6055C55.0771 28.1621 56.0342 28.4404 57.1182 28.4404C57.6943 28.4404 58.2803 28.3818 58.876 28.2646C59.4717 28.1377 60.0479 27.9717 60.6045 27.7666L61.1172 24.749H64.8672V30.125C64.0176 30.7109 62.9336 31.2236 61.6152 31.6631C60.2969 32.0928 58.7783 32.3076 57.0596 32.3076ZM66.4562 32V28.9971L68.3312 28.5283V12.6348L66.1047 12.166V9.14844H73.4729V28.5283L75.3332 28.9971V32H66.4562ZM84.1439 32.3076C82.5131 32.3076 81.1166 31.9707 79.9545 31.2969C78.8021 30.6133 77.9184 29.666 77.3031 28.4551C76.6977 27.2344 76.3949 25.8232 76.3949 24.2217V23.9287C76.3949 22.3467 76.6977 20.9502 77.3031 19.7393C77.9184 18.5283 78.8021 17.5811 79.9545 16.8975C81.1068 16.2041 82.4936 15.8574 84.1146 15.8574C85.7455 15.8574 87.1322 16.1992 88.2748 16.8828C89.4271 17.5664 90.3061 18.5137 90.9115 19.7246C91.5268 20.9355 91.8344 22.3369 91.8344 23.9287V24.2217C91.8344 25.8135 91.5268 27.2197 90.9115 28.4404C90.3061 29.6514 89.4271 30.5986 88.2748 31.2822C87.1322 31.9658 85.7553 32.3076 84.1439 32.3076ZM84.1439 28.3965C84.7689 28.3965 85.267 28.2305 85.6381 27.8984C86.0189 27.5566 86.2924 27.0732 86.4584 26.4482C86.6342 25.8232 86.7221 25.0811 86.7221 24.2217V23.9287C86.7221 23.0986 86.6342 22.376 86.4584 21.7607C86.2924 21.1357 86.0189 20.6523 85.6381 20.3105C85.2572 19.959 84.7494 19.7832 84.1146 19.7832C83.4896 19.7832 82.9867 19.959 82.6059 20.3105C82.225 20.6523 81.9516 21.1357 81.7855 21.7607C81.6195 22.376 81.5365 23.0986 81.5365 23.9287V24.2217C81.5365 25.0908 81.6195 25.8379 81.7855 26.4629C81.9516 27.0879 82.225 27.5664 82.6059 27.8984C82.9867 28.2305 83.4994 28.3965 84.1439 28.3965ZM98.8873 32L94.6246 19.4609L92.8668 19.168V16.1504H101.202V19.1533L99.7809 19.4463L101.465 25.4961L101.788 26.6973H101.876L102.271 25.4961L104.483 19.4609L102.652 19.1533V16.1504H110.972V19.168L109.156 19.5195L104.351 32H98.8873ZM119.886 32.3076C118.333 32.3076 116.975 31.9756 115.813 31.3115C114.661 30.6377 113.762 29.7197 113.118 28.5576C112.483 27.3955 112.166 26.082 112.166 24.6172V24.0752C112.166 22.4639 112.449 21.0381 113.015 19.7979C113.582 18.5576 114.412 17.5908 115.506 16.8975C116.599 16.1943 117.942 15.8477 119.534 15.8574C120.97 15.8574 122.18 16.1357 123.167 16.6924C124.163 17.2393 124.92 18.0498 125.437 19.124C125.955 20.1885 126.214 21.502 126.214 23.0645V25.7158H117.498L117.483 25.8184C117.561 26.3164 117.727 26.7607 117.981 27.1514C118.245 27.5322 118.606 27.835 119.065 28.0596C119.524 28.2842 120.091 28.3965 120.764 28.3965C121.429 28.3965 122.078 28.3232 122.713 28.1768C123.357 28.0205 124.036 27.7764 124.749 27.4443L125.921 30.5498C125.208 31.0576 124.339 31.4775 123.313 31.8096C122.288 32.1416 121.145 32.3076 119.886 32.3076ZM117.498 22.5371H121.526V22.1562C121.526 21.5898 121.468 21.1162 121.35 20.7354C121.243 20.3545 121.053 20.0664 120.779 19.8711C120.506 19.6758 120.13 19.5781 119.651 19.5781C119.134 19.5781 118.719 19.7051 118.406 19.959C118.103 20.2031 117.879 20.5449 117.732 20.9844C117.596 21.4141 117.498 21.9072 117.439 22.4639L117.498 22.5371ZM128.872 32V28.9971L130.718 28.5283V19.6367L128.521 19.168V16.1504H135.566L135.684 18.084L135.713 18.4795C136.064 17.5811 136.499 16.9219 137.017 16.502C137.544 16.0723 138.198 15.8574 138.979 15.8574C139.194 15.8574 139.448 15.877 139.741 15.916C140.034 15.9453 140.332 16.0039 140.635 16.0918L140.122 20.8086L137.925 20.7061C137.417 20.6865 137.017 20.7451 136.724 20.8818C136.44 21.0088 136.152 21.2236 135.859 21.5264V28.5283L137.705 28.9971V32H128.872ZM139.807 32V27.752H144.919V32H139.807Z" fill="white"/>
</svg>
