<svg width="22" height="22" viewBox="0 0 22 22" fill="none" xmlns="http://www.w3.org/2000/svg">
<path d="M10.8333 21.895C4.85009 21.895 -7.35077e-07 16.9938 -4.7354e-07 10.9475C-2.12004e-07 4.9012 4.85009 2.14238e-07 10.8333 4.78531e-07C16.8166 7.42823e-07 21.6667 4.9012 21.6667 10.9475C21.6667 16.9938 16.8166 21.895 10.8333 21.895ZM18.0592 10.9475C18.048 10.6394 17.9489 10.341 17.7738 10.0885C17.5986 9.83602 17.355 9.6401 17.0721 9.52438C16.7893 9.40867 16.4794 9.3781 16.1797 9.43636C15.8801 9.49463 15.6035 9.63924 15.3833 9.85276C14.151 9.0062 12.7023 8.53851 11.2125 8.50622L11.9167 5.09059L14.235 5.58323C14.2626 5.84212 14.3805 6.08261 14.5678 6.26152C14.755 6.44043 14.9991 6.54606 15.2565 6.55944C15.5138 6.57282 15.7674 6.49307 15.9718 6.33452C16.1762 6.17596 16.318 5.94898 16.3717 5.69432C16.4254 5.43965 16.3875 5.17398 16.2648 4.945C16.1422 4.71601 15.9428 4.5387 15.7024 4.44489C15.462 4.35109 15.1965 4.34693 14.9533 4.43317C14.7102 4.51941 14.5055 4.69039 14.3758 4.91543L11.7217 4.379C11.6783 4.36938 11.6334 4.36856 11.5897 4.37659C11.546 4.38462 11.5042 4.40133 11.467 4.42577C11.4297 4.45021 11.3976 4.48189 11.3725 4.51896C11.3474 4.55603 11.3298 4.59777 11.3208 4.64174L10.5192 8.44053C9.01105 8.46351 7.54247 8.93155 6.29417 9.78707C6.12717 9.62828 5.92799 9.50809 5.71045 9.43481C5.4929 9.36154 5.2622 9.33695 5.03431 9.36273C4.80643 9.38852 4.58682 9.46407 4.3907 9.58415C4.19458 9.70423 4.02665 9.86597 3.89853 10.0582C3.77042 10.2503 3.68519 10.4684 3.64875 10.6972C3.61231 10.9259 3.62554 11.16 3.68751 11.3831C3.74948 11.6062 3.85871 11.813 4.00764 11.9892C4.15657 12.1654 4.34163 12.3068 4.55 12.4035C4.53781 12.5639 4.53781 12.7249 4.55 12.8852C4.55 15.3375 7.37751 17.3299 10.8658 17.3299C14.3542 17.3299 17.1817 15.3375 17.1817 12.8852C17.1939 12.7249 17.1939 12.5639 17.1817 12.4035C17.449 12.2693 17.6733 12.0613 17.8286 11.8036C17.9838 11.546 18.0638 11.2492 18.0592 10.9475V10.9475ZM7.22584 12.0423C7.22584 11.7519 7.33998 11.4735 7.54314 11.2682C7.74631 11.0628 8.02186 10.9475 8.30917 10.9475C8.59649 10.9475 8.87204 11.0628 9.07521 11.2682C9.27837 11.4735 9.39251 11.7519 9.39251 12.0423C9.39251 12.3326 9.27837 12.6111 9.07521 12.8164C8.87204 13.0217 8.59649 13.137 8.30917 13.137C8.02186 13.137 7.74631 13.0217 7.54314 12.8164C7.33998 12.6111 7.22584 12.3326 7.22584 12.0423ZM13.52 15.0528C12.7514 15.6381 11.8058 15.936 10.8442 15.8958C9.88259 15.936 8.93694 15.6381 8.16834 15.0528C8.12227 14.9961 8.09873 14.9241 8.10229 14.8508C8.10586 14.7775 8.13627 14.7082 8.18761 14.6563C8.23896 14.6044 8.30757 14.5737 8.38009 14.5701C8.45262 14.5665 8.52388 14.5903 8.58001 14.6368C9.23134 15.1196 10.0264 15.3629 10.8333 15.3265C11.6413 15.3709 12.44 15.1353 13.0975 14.6587C13.1252 14.6274 13.159 14.6021 13.1968 14.5845C13.2346 14.5669 13.2755 14.5573 13.3171 14.5564C13.3587 14.5555 13.4001 14.5632 13.4386 14.5791C13.4771 14.595 13.5119 14.6188 13.541 14.6489C13.57 14.679 13.5926 14.7148 13.6074 14.7541C13.6221 14.7934 13.6287 14.8354 13.6268 14.8773C13.6248 14.9193 13.6143 14.9605 13.596 14.9982C13.5776 15.0359 13.5517 15.0694 13.52 15.0966L13.52 15.0528V15.0528ZM13.325 13.1808C13.1107 13.1808 12.9013 13.1166 12.7231 12.9963C12.545 12.876 12.4061 12.705 12.3241 12.505C12.2421 12.305 12.2207 12.0848 12.2625 11.8725C12.3043 11.6601 12.4075 11.465 12.559 11.3119C12.7105 11.1588 12.9035 11.0546 13.1137 11.0123C13.3238 10.9701 13.5416 10.9918 13.7396 11.0746C13.9375 11.1575 14.1067 11.2978 14.2258 11.4778C14.3448 11.6579 14.4083 11.8695 14.4083 12.0861C14.4142 12.2344 14.3902 12.3824 14.3377 12.521C14.2852 12.6597 14.2054 12.7861 14.103 12.8926C14.0007 12.9991 13.878 13.0834 13.7424 13.1405C13.6068 13.1976 13.4611 13.2262 13.3142 13.2246L13.325 13.1808Z" fill="white"/>
</svg>
