<svg width="12" height="12" viewBox="0 0 12 12" fill="none" xmlns="http://www.w3.org/2000/svg">
<path d="M6.22631 0.893767C6.18512 0.806026 6.09693 0.75 6 0.75C5.90307 0.75 5.81488 0.806026 5.77369 0.893767L4.28532 4.06442L0.962022 4.57519C0.869431 4.58942 0.792566 4.65423 0.762882 4.74308C0.733199 4.83193 0.75568 4.92992 0.821124 4.99694L3.23294 7.46709L2.66326 10.9598C2.64785 11.0542 2.68776 11.1492 2.76603 11.2044C2.84431 11.2595 2.94719 11.2651 3.03098 11.2188L6 9.57695L8.96902 11.2188C9.05281 11.2651 9.15569 11.2595 9.23397 11.2044C9.31224 11.1492 9.35215 11.0542 9.33674 10.9598L8.76706 7.46709L11.1789 4.99694C11.2443 4.92992 11.2668 4.83193 11.2371 4.74308C11.2074 4.65423 11.1306 4.58942 11.038 4.57519L7.71468 4.06442L6.22631 0.893767Z" fill="url(#paint0_linear_503_209)" stroke="url(#paint1_linear_503_209)" stroke-width="0.5" stroke-linecap="round" stroke-linejoin="round"/>
<defs>
<linearGradient id="paint0_linear_503_209" x1="4" y1="0.474238" x2="8.37293" y2="12.4304" gradientUnits="userSpaceOnUse">
<stop stop-color="#FFAC0C"/>
<stop offset="1" stop-color="#FFB801"/>
</linearGradient>
<linearGradient id="paint1_linear_503_209" x1="6" y1="1" x2="6" y2="11" gradientUnits="userSpaceOnUse">
<stop stop-color="#FFAB07"/>
<stop offset="1" stop-color="#FFB800"/>
</linearGradient>
</defs>
</svg>
