<svg width="23" height="22" viewBox="0 0 23 22" fill="none" xmlns="http://www.w3.org/2000/svg">
<path d="M11.5003 0C9.35771 0 7.26319 0.64206 5.48166 1.84499C3.70012 3.04792 2.31159 4.75768 1.49164 6.75808C0.671686 8.75847 0.45715 10.9597 0.875157 13.0833C1.29316 15.2069 2.32494 17.1575 3.84001 18.6886C5.35508 20.2196 7.2854 21.2622 9.38686 21.6847C11.4883 22.1071 13.6665 21.8903 15.6461 21.0617C17.6256 20.2331 19.3175 18.8299 20.5079 17.0296C21.6983 15.2293 22.3337 13.1127 22.3337 10.9475C22.3337 9.50986 22.0535 8.08629 21.509 6.75808C20.9646 5.42986 20.1666 4.22302 19.1607 3.20645C18.1547 2.18988 16.9604 1.38349 15.6461 0.833329C14.3317 0.283166 12.923 0 11.5003 0ZM14.9453 16.5877C14.9049 16.6899 14.8433 16.7823 14.7646 16.8585C14.6859 16.9347 14.592 16.993 14.4892 17.0295C14.3864 17.066 14.277 17.0799 14.1685 17.0701C14.0599 17.0604 13.9547 17.0273 13.8598 16.973L10.9186 14.6631L9.03142 16.4235C8.98762 16.4561 8.93639 16.4772 8.88244 16.4846C8.82849 16.4921 8.77355 16.4857 8.72267 16.4661L9.0845 13.1939L9.09534 13.2038L9.10292 13.1392C9.10292 13.1392 14.395 8.26975 14.6106 8.06284C14.8294 7.85593 14.7568 7.81105 14.7568 7.81105C14.7698 7.55925 14.3658 7.81105 14.3658 7.81105L7.35334 12.3696L4.43375 11.3646C4.43375 11.3646 3.98525 11.2026 3.943 10.8446C3.89858 10.4899 4.44783 10.2972 4.44783 10.2972L16.0579 5.63578C16.0579 5.63578 17.0123 5.20663 17.0123 5.91822L14.9453 16.5877Z" fill="white"/>
</svg>
