<svg width="23" height="23" viewBox="0 0 23 23" fill="none" xmlns="http://www.w3.org/2000/svg">
<path d="M11.334 0C5.25878 0 0.333984 4.97671 0.333984 11.116C0.333984 17.2552 5.25878 22.2319 11.334 22.2319C17.4092 22.2319 22.334 17.2552 22.334 11.116C22.334 4.97671 17.4092 0 11.334 0ZM15.8085 9.10583C15.813 9.20078 15.8142 9.29573 15.8142 9.38836C15.8142 12.2831 13.636 15.6191 9.65076 15.6191C8.47318 15.6211 7.32009 15.2793 6.33013 14.6349C6.49857 14.6557 6.67159 14.6638 6.8469 14.6638C7.86211 14.6638 8.79596 14.3153 9.53732 13.7271C9.08553 13.7181 8.64777 13.5669 8.28505 13.2946C7.92232 13.0223 7.65271 12.6424 7.51378 12.2079C7.83822 12.2702 8.17246 12.2572 8.49117 12.1697C8.00081 12.0695 7.55984 11.801 7.24302 11.4097C6.92621 11.0184 6.75306 10.5285 6.75294 10.0229V9.99627C7.04513 10.1595 7.37971 10.2591 7.73492 10.2707C7.27521 9.96144 6.94978 9.4864 6.82518 8.94272C6.70058 8.39903 6.78623 7.82779 7.06461 7.3458C7.60883 8.02202 8.28751 8.57521 9.05672 8.96956C9.82593 9.3639 10.6685 9.5906 11.5299 9.635C11.4204 9.16524 11.4675 8.67208 11.664 8.23219C11.8604 7.7923 12.1952 7.43032 12.6163 7.20253C13.0373 6.97473 13.521 6.89389 13.9922 6.97257C14.4634 7.05125 14.8957 7.28504 15.2218 7.6376C15.7067 7.54065 16.1717 7.36092 16.5968 7.10611C16.4352 7.61343 16.0968 8.04423 15.6446 8.31845C16.0741 8.26617 16.4935 8.14948 16.889 7.97223C16.5985 8.41212 16.2326 8.79602 15.8085 9.10583V9.10583Z" fill="white"/>
</svg>
